<svg xmlns="http://www.w3.org/2000/svg" viewBox="0 0 238.94 238.98">
<g>
	<g>
		<path fill="#ffffff" d="M158.58,35.93c0,0-67.95-43.86-108.04,34.62c0,0-3.34-19.04,10.03-31.74c0,0-56.25,38.66-28.4,96.37
			c0,0-11.69-6.35-13.37-19.04c0,0-11.7,61.17,51.24,81.36c0,0-7.8,2.89-13.92,1.16c0,0,75.19,50.21,133.1-24.81l-23.2-24.81
			c0,0-72.59,32.31-78.16-31.74c0,0-5.57,13.85-0.56,27.7c0,0-33.42-42.7,6.68-76.17c0,0-12.81,3.46-18.38,8.08
			C75.6,76.91,92.87,21.51,158.58,35.93z"/>
		<path fill="#ffffff" d="M193.79,162.25c0-9.33-7.64-16.89-17.06-16.89c-9.42,0-17.06,7.56-17.06,16.89
			c0,9.33,7.63,16.89,17.06,16.89C186.15,179.14,193.79,171.58,193.79,162.25z"/>
		<g>
			<path fill="#ffffff" d="M170.65,202.36c0,0,64.36-53.65,29.18-108.96c0,0-3.24-3.26-9.23-0.07c-5.99,3.19-13.51-3.27-16.06-3.96
				c-2.56-0.68-12.44,0.43-13.88,4.5c0,0,3.29-9.73,8.07-12.22c0,0-4.29-17.24,11.68-21.87c15.96-4.63,45.7,21.15,44.68,63.33
				C224.06,165.3,179.71,197.94,170.65,202.36z"/>
			<g>
				<path fill="#ffffff" d="M158.64,66.78c5.48,0,5.48-8.5,0-8.5C153.16,58.28,153.16,66.78,158.64,66.78L158.64,66.78z"/>
			</g>
			<polygon fill="#ffffff" points="159.01,64.75 168.22,68.34 160.94,63.29 			"/>
			<g>
				<g>
					<path fill="#ffffff" d="M166.7,56.57c4.11,0,4.11-6.37,0-6.37C162.59,50.19,162.59,56.57,166.7,56.57L166.7,56.57z"/>
				</g>
				<polygon fill="#ffffff" points="167.27,54.99 171.61,60.04 168.59,53.95 				"/>
			</g>
			<g>
				<g>
					<path fill="#ffffff" d="M176.77,51.84c2.74,0,2.74-4.25,0-4.25C174.03,47.59,174.03,51.84,176.77,51.84L176.77,51.84z"/>
				</g>
				<polyline fill="#ffffff" points="176.51,50.7 177.97,55.92 177.59,50.7 176.77,50.7 				"/>
			</g>
		</g>
	</g>
</g>
</svg>
